<?xml version="1.0" encoding="utf-8"?>
<!-- Generator: Adobe Illustrator 27.2.0, SVG Export Plug-In . SVG Version: 6.00 Build 0)  -->
<svg version="1.1" id="Слой_1" xmlns="http://www.w3.org/2000/svg" xmlns:xlink="http://www.w3.org/1999/xlink" x="0px" y="0px"
	 viewBox="0 0 256 207.1" style="enable-background:new 0 0 256 207.1;" xml:space="preserve">
<style type="text/css">
	.st0{fill:#7382EC;}
</style>
<path class="st0" d="M54.9,57.4L28,24l11.7-9.4L66.6,48L54.9,57.4z M134.7,0h-15.1v41.2h15.1V0z M227.8,24.2l-11.4-9.8l-28.9,33.4
	l11.4,9.8L227.8,24.2z M256,135.5c0,40.1-56.2,71.5-128,71.5S0,175.6,0,135.5S56.2,64,128,64S256,95.4,256,135.5z M240.9,135.5
	c0-30.6-51.7-56.5-112.9-56.5S15.1,104.9,15.1,135.5S66.8,192,128,192S240.9,166.1,240.9,135.5z M173.2,135.5
	c0,24.9-20.3,45.2-45.2,45.2c-24.9,0-45.2-20.3-45.2-45.2c0-24.9,20.3-45.2,45.2-45.2C152.9,90.4,173.2,110.6,173.2,135.5z
	 M158.1,135.5c0-16.6-13.5-30.1-30.1-30.1s-30.1,13.5-30.1,30.1s13.5,30.1,30.1,30.1S158.1,152.1,158.1,135.5z"/>
</svg>
