<?xml version="1.0" encoding="utf-8"?>
<!-- Generator: Adobe Illustrator 27.2.0, SVG Export Plug-In . SVG Version: 6.00 Build 0)  -->
<svg version="1.1" id="Слой_1" xmlns="http://www.w3.org/2000/svg" xmlns:xlink="http://www.w3.org/1999/xlink" x="0px" y="0px"
	 viewBox="0 0 256 207.1" style="enable-background:new 0 0 256 207.1;" xml:space="preserve">
<style type="text/css">
	.st0{fill:#7382EC;}
</style>
<polygon class="st0" points="54.9,57.4 28,24 39.7,14.6 66.6,48 "/>
<rect x="120.4" class="st0" width="15.1" height="41.2"/>
<polygon class="st0" points="227.8,24.2 216.4,14.4 187.5,47.8 198.9,57.6 "/>
<path class="st0" d="M128,64.1C56.2,64.1,0,95.5,0,135.6c0,40.1,56.2,71.5,128,71.5s128-31.4,128-71.5C256,95.5,199.8,64.1,128,64.1
	z M128,192.1c-61.2,0-112.9-25.9-112.9-56.5c0-30.6,51.7-56.5,112.9-56.5s112.9,25.9,112.9,56.5C240.9,166.2,189.2,192.1,128,192.1z
	"/>
<path class="st0" d="M128,90.3c-24.9,0-45.2,20.3-45.2,45.2c0,24.9,20.3,45.2,45.2,45.2s45.2-20.3,45.2-45.2
	C173.2,110.6,152.9,90.4,128,90.3z M128,165.6c-16.6,0-30.1-13.5-30.1-30.1c0-16.6,13.5-30.1,30.1-30.1c16.6,0,30.1,13.5,30.1,30.1
	C158.1,152.1,144.6,165.6,128,165.6z"/>
</svg>
