<?xml version="1.0" encoding="utf-8"?>
<!-- Generator: Adobe Illustrator 27.2.0, SVG Export Plug-In . SVG Version: 6.00 Build 0)  -->
<svg version="1.1" id="Слой_1" xmlns="http://www.w3.org/2000/svg" xmlns:xlink="http://www.w3.org/1999/xlink" x="0px" y="0px"
	 viewBox="0 0 459 1092" style="enable-background:new 0 0 459 1092;" xml:space="preserve">
<path d="M-0.5,1092.9c0-295.9,0-591.9,0-887.8c32.1-21,64.3-42,96.4-63c6.6-3.5,11.6-7.7,11.6-7.7c8.4-7.1,16.5-10.9,16.5-10.9
	c7.6-2.4,15.3-4.9,22.9-7.3c2.6,0.5,78.2,33.6,136.7,8.6c14.9-6.4,21.2-7.8,31.2-21.8c5-7,62.3,10.1,78.5,12.4
	c11.5,1.6,17.4,5.1,22.9,6.9c21.9,7.1,35.9,11.1,43.4,20.7c0,317.8,0,631.6,0,949.4"/>
</svg>
