<?xml version="1.0" encoding="utf-8"?>
<!-- Generator: Adobe Illustrator 27.2.0, SVG Export Plug-In . SVG Version: 6.00 Build 0)  -->
<svg version="1.1" id="Слой_1" xmlns="http://www.w3.org/2000/svg" xmlns:xlink="http://www.w3.org/1999/xlink" x="0px" y="0px"
	 viewBox="0 0 1352 783" style="enable-background:new 0 0 1352 783;" xml:space="preserve">
<style type="text/css">
	.st0{fill:#333333;}
	.st1{fill:#616161;}
</style>
<g>
	<path class="st0" d="M1181.8,54c0-17.7-14.3-32-32-32H201.5c-17.7,0-32,14.3-32,32v1.8v11.6v684.6h25.8v0H1156v0h25.8V67.4h0V54z
		 M1156,716.4H195.3v-649H1156V716.4z"/>
	<path class="st1" d="M0,756v-0.5c0-3.3,2.7-6,6-6h1320c3.3,0,6,2.7,6,6v0.4c0,2.9-2.1,5.4-5,5.9l-123.8,21.1
		c-0.3,0.1-0.7,0.1-1,0.1h-1082c-0.4,0-0.7,0-1.1-0.1l-114.2-21C2.1,761.4,0,758.9,0,756z"/>
</g>
</svg>
