<svg viewBox="0 0 147 18" xmlns="http://www.w3.org/2000/svg">
<path d="M78.9628 0.90918C78.1403 0.90918 77.5527 1.44342 77.5527 2.08451V14.5858C77.5527 15.9748 78.7278 17.0433 80.2554 17.0433H94.0035C94.7086 17.0433 95.2961 16.509 95.2961 15.868C95.2961 15.2269 94.7086 14.6926 94.0035 14.6926H80.2554V2.08451C80.2554 1.44342 79.6678 0.90918 78.9628 0.90918Z" fill="#7382EC"/>
<path d="M101.171 17.0433C101.877 17.0433 102.464 16.509 102.464 15.868V2.08451C102.464 1.44342 101.877 0.90918 101.171 0.90918C100.466 0.90918 99.8789 1.44342 99.8789 2.08451V15.868C99.8789 16.509 100.466 17.0433 101.171 17.0433Z" fill="#7382EC"/>
<path d="M122.088 13.4104L110.22 1.44342C109.867 1.12288 109.28 0.90918 108.81 0.90918C107.752 0.90918 106.93 1.65712 106.93 2.61875V15.868C106.93 16.509 107.517 17.0433 108.222 17.0433C108.927 17.0433 109.515 16.509 109.515 15.868V4.54202L121.383 16.509C121.735 16.8296 122.205 17.0433 122.793 17.0433C123.851 17.0433 124.673 16.2953 124.673 15.3337V2.08451C124.673 1.44342 124.086 0.90918 123.38 0.90918C122.675 0.90918 122.088 1.44342 122.088 2.08451V13.4104Z" fill="#7382EC"/>
<path d="M130.548 17.0421H145.706C146.411 17.0421 146.999 16.5078 146.999 15.8667C146.999 15.2256 146.411 14.6914 145.706 14.6914H130.548C129.843 14.6914 129.255 15.2256 129.255 15.8667C129.138 16.5078 129.725 17.0421 130.548 17.0421Z" fill="#7382EC"/>
<path d="M130.548 10.2042H145.707C146.412 10.2042 146.999 9.66994 146.999 9.02885C146.999 8.38776 146.412 7.85352 145.707 7.85352H130.548C129.843 7.85352 129.256 8.38776 129.256 9.02885C129.256 9.66994 129.726 10.2042 130.548 10.2042Z" fill="#7382EC"/>
<path d="M129.139 2.08451C129.139 2.7256 129.726 3.25984 130.431 3.25984H145.589C146.295 3.25984 146.882 2.7256 146.882 2.08451C146.882 1.44342 146.295 0.90918 145.589 0.90918H130.431C129.726 0.90918 129.139 1.44342 129.139 2.08451Z" fill="#7382EC"/>
<path d="M7.52036 0.90918H1.29256C0.587528 0.90918 0 1.44342 0 2.08451C0 2.7256 0.587528 3.25984 1.29256 3.25984H7.52036V15.868C7.52036 16.509 8.10789 17.0433 8.81293 17.0433C9.51796 17.0433 10.1055 16.509 10.1055 15.868V3.36669H16.4508C17.1558 3.36669 17.7434 2.83245 17.7434 2.19136C17.7434 1.44342 17.1558 0.90918 16.4508 0.90918H10.223H7.52036Z" fill="#7382EC"/>
<path d="M52.6426 0.90918H44.5347H41.832V13.1967V15.868C41.832 16.509 42.4196 17.0433 43.1246 17.0433C43.8296 17.0433 44.4172 16.509 44.4172 15.868V13.1967H52.7601C56.6378 13.1967 59.6929 10.3118 59.5754 6.67899C59.3404 3.47354 56.2852 0.90918 52.6426 0.90918ZM52.6426 10.7392H44.5347V3.36669H52.8776C55.2277 3.36669 57.1078 5.18311 56.9903 7.32008C56.7553 9.24335 54.8752 10.7392 52.6426 10.7392Z" fill="#7382EC"/>
<path d="M28.4363 0.90918C23.5011 0.90918 19.5059 4.54202 19.5059 9.02966C19.5059 13.5173 23.5011 17.1501 28.4363 17.1501C33.3715 17.1501 37.3667 13.5173 37.3667 9.02966C37.3667 4.54202 33.3715 0.90918 28.4363 0.90918ZM28.4363 14.6926C25.0286 14.6926 22.2085 12.1283 22.2085 9.02966C22.2085 5.93105 25.0286 3.36669 28.4363 3.36669C31.844 3.36669 34.6641 5.93105 34.6641 9.02966C34.6641 12.1283 31.844 14.6926 28.4363 14.6926Z" fill="#7382EC"/>
<path d="M93.4178 1.01562H87.3075C86.3675 1.01562 85.5449 1.76356 85.5449 2.61835V8.17447C85.5449 9.02925 86.3675 9.77719 87.3075 9.77719H93.4178C94.3578 9.77719 95.1804 9.02925 95.1804 8.17447V2.61835C95.1804 1.76356 94.3578 1.01562 93.4178 1.01562Z" fill="#7382EC"/>
</svg>
