<?xml version="1.0" encoding="utf-8"?>
<svg version="1.1" id="Слой_1" xmlns="http://www.w3.org/2000/svg" xmlns:xlink="http://www.w3.org/1999/xlink" x="0px" y="0px"
	 viewBox="0 0 32 32" xml:space="preserve">
<style type="text/css">
	.animate {
		animation: move 1s ease 1s infinite alternate;
	}

	@keyframes move {
		0% {
			transform: translate(0, 0);
		}
		100% {
			transform: translate(0, -10px);
		}
	}
</style>
	<path fill="#FFFFFF" d="M4.2,17l2.6,2.6c0.1,0.1,0.3,0.2,0.4,0.2c0.2,0,0.3,0,0.4-0.2l2.6-2.6c0.2-0.2,0.2-0.6,0-0.8
	c-0.2-0.2-0.6-0.2-0.8,0l-1.6,1.6c0-3.8,0-7.5,0-11.3l1.6,1.6c0.2,0.2,0.6,0.2,0.8,0c0.2-0.2,0.2-0.6,0-0.8L7.7,4.6
	C7.6,4.5,7.4,4.5,7.3,4.5c-0.1,0-0.3,0-0.4,0.2L4.2,7.3C4,7.5,4,7.9,4.2,8.1c0.2,0.2,0.6,0.2,0.8,0l1.6-1.6c0,3.8,0,7.5,0,11.3
	L5,16.1c-0.2-0.2-0.6-0.2-0.8,0C4,16.4,4,16.7,4.2,17z"/>
  <path fill="#FFFFFF" class="animate" d="M10.5,11.1c-1.1,0.6-1.5,2.1-0.9,3.2l4,7c-0.7-0.5-1.7-0.9-2.5-0.7c-1.1,0.3-1.9,1.7-1.6,2.8
	c0.2,0.6,0.6,1.1,1.2,1.6c3.2,2.4,6.5,4.5,9.8,5.7c0.2,0.1,0.3,0,0.5,0l6.9-4c0.1-0.1,0.2-0.2,0.2-0.3c0.4-1,0.5-2.2,0.3-3.6
	c-0.1-1.4-0.5-2.9-1-4.2c-0.5-1.4-1.2-2.5-2.1-3.4c-0.8-0.8-2-1.3-3.1-0.8c-0.2,0.1-0.5,0.3-0.7,0.5c-0.3-0.2-0.6-0.4-1-0.4
	c-0.5-0.1-1,0.1-1.3,0.3c-0.3,0.2-0.5,0.4-0.7,0.8c-0.2-0.1-0.4-0.2-0.6-0.2c-0.5-0.1-1,0.1-1.3,0.3c-0.3,0.2-0.5,0.4-0.7,0.6
	L13.7,12C12.9,10.6,11.5,10.6,10.5,11.1z M11.1,12.1c0.6-0.3,1.3-0.1,1.6,0.4l3.1,5.3c0.1,0.2,0.4,0.4,0.7,0.3
	c0.3-0.1,0.4-0.3,0.4-0.6c0-0.3,0.3-0.8,0.5-0.9c0.1-0.1,0.4-0.2,0.6-0.1c0.2,0,0.4,0.1,0.6,0.5c0.1,0.2,0.4,0.3,0.7,0.3
	c0.3-0.1,0.4-0.3,0.4-0.6c0-0.5,0-0.7,0.3-0.8c0.1,0,0.3-0.1,0.6-0.1c0.2,0,0.4,0.1,0.6,0.4c0.1,0.2,0.3,0.3,0.6,0.3
	c0.2,0,0.4-0.2,0.5-0.4c0.1-0.2,0.3-0.3,0.6-0.5c0.7-0.3,1.2-0.1,1.8,0.6c0.7,0.6,1.3,1.7,1.8,3c0.5,1.3,0.8,2.7,1,3.9
	c0.1,1.2,0,2.2-0.2,2.9l-6.4,3.7c-3-1.1-6.6-3.3-9.2-5.4c-0.6-0.5-0.8-0.8-0.8-1c-0.1-0.6,0.3-1.2,0.8-1.4c0.7-0.1,1,0.2,1.5,0.5
	l2.2,1.4c0.2,0.1,0.5,0.1,0.7-0.1c0.2-0.2,0.2-0.5,0.1-0.7l-5.3-9.1C10.3,13.2,10.5,12.5,11.1,12.1z"/>
</svg>
